<svg width="272" height="288" viewBox="0 0 272 288" fill="none" xmlns="http://www.w3.org/2000/svg">
<g filter="url(#filter0_d)">
<path d="M9.56132 145.733H20.9613V43.133H9.56132V5.74099H114.213C133.213 5.74099 148.033 9.61699 158.673 17.369C169.313 25.121 174.633 36.217 174.633 50.657C174.633 59.625 172.505 67.225 168.249 73.457C163.993 79.537 158.977 84.173 153.201 87.365C147.577 90.405 142.105 92.457 136.785 93.521V95.801C147.577 96.865 157.305 100.285 165.969 106.061C174.633 111.837 178.965 122.173 178.965 137.069C178.965 153.029 172.961 164.733 160.953 172.181C148.945 179.477 133.365 183.125 114.213 183.125H9.56132V145.733ZM97.1133 80.525C101.521 80.525 104.789 79.385 106.917 77.105C109.197 74.673 110.337 70.949 110.337 65.933V57.725C110.337 52.709 109.197 49.061 106.917 46.781C104.789 44.349 101.521 43.133 97.1133 43.133H84.8013V80.525H97.1133ZM98.7093 145.733C103.117 145.733 106.385 144.593 108.513 142.313C110.793 139.881 111.933 136.157 111.933 131.141V121.109C111.933 116.093 110.793 112.445 108.513 110.165C106.385 107.733 103.117 106.517 98.7093 106.517H84.8013V145.733H98.7093Z" fill="white"/>
<path d="M9.56133 145.733V143.358H7.18633V145.733H9.56133ZM20.9613 145.733V148.108H23.3363V145.733H20.9613ZM20.9613 43.133H23.3363V40.758H20.9613V43.133ZM9.56133 43.133H7.18633V45.508H9.56133V43.133ZM9.56133 5.74099V3.36599H7.18633V5.74099H9.56133ZM168.249 73.457L170.195 74.819L170.203 74.8077L170.211 74.7964L168.249 73.457ZM153.201 87.365L154.331 89.4543L154.34 89.449L154.35 89.4437L153.201 87.365ZM136.785 93.521L136.32 91.1921L134.41 91.574V93.521H136.785ZM136.785 95.801H134.41V97.9534L136.552 98.1645L136.785 95.801ZM165.969 106.061L167.287 104.085L165.969 106.061ZM160.953 172.181L162.187 174.211L162.196 174.205L162.205 174.199L160.953 172.181ZM9.56133 183.125H7.18633V185.5H9.56133V183.125ZM106.917 77.105L105.185 75.4806L105.181 75.4845L106.917 77.105ZM106.917 46.781L105.13 48.3449L105.182 48.4044L105.238 48.4604L106.917 46.781ZM84.8013 43.133V40.758H82.4263V43.133H84.8013ZM84.8013 80.525H82.4263V82.9H84.8013V80.525ZM108.513 142.313L106.781 140.689L106.777 140.692L108.513 142.313ZM108.513 110.165L106.726 111.729L106.778 111.788L106.834 111.844L108.513 110.165ZM84.8013 106.517V104.142H82.4263V106.517H84.8013ZM84.8013 145.733H82.4263V148.108H84.8013V145.733ZM9.56133 148.108H20.9613V143.358H9.56133V148.108ZM23.3363 145.733V43.133H18.5863V145.733H23.3363ZM20.9613 40.758H9.56133V45.508H20.9613V40.758ZM11.9363 43.133V5.74099H7.18633V43.133H11.9363ZM9.56133 8.11599H114.213V3.36599H9.56133V8.11599ZM114.213 8.11599C132.925 8.11599 147.185 11.9377 157.275 19.2885L160.072 15.4494C148.881 7.29627 133.502 3.36599 114.213 3.36599V8.11599ZM157.275 19.2885C167.235 26.5455 172.258 36.8907 172.258 50.657H177.008C177.008 35.5433 171.391 23.6965 160.072 15.4494L157.275 19.2885ZM172.258 50.657C172.258 59.2389 170.227 66.3499 166.288 72.1176L170.211 74.7964C174.784 68.1001 177.008 60.0111 177.008 50.657H172.258ZM166.304 72.095C162.229 77.9157 157.474 82.2901 152.053 85.2863L154.35 89.4437C160.48 86.0559 165.758 81.1583 170.195 74.819L166.304 72.095ZM152.072 85.2757C146.62 88.2227 141.371 90.1819 136.32 91.1921L137.251 95.8499C142.84 94.7321 148.535 92.5873 154.331 89.4543L152.072 85.2757ZM134.41 93.521V95.801H139.16V93.521H134.41ZM136.552 98.1645C146.973 99.1919 156.326 102.486 164.652 108.037L167.287 104.085C158.285 98.0836 148.181 94.538 137.018 93.4375L136.552 98.1645ZM164.652 108.037C172.398 113.201 176.59 122.598 176.59 137.069H181.34C181.34 121.748 176.869 110.473 167.287 104.085L164.652 108.037ZM176.59 137.069C176.59 152.334 170.91 163.21 159.701 170.163L162.205 174.199C175.013 166.256 181.34 153.724 181.34 137.069H176.59ZM159.72 170.151C148.195 177.154 133.083 180.75 114.213 180.75V185.5C133.648 185.5 149.695 181.8 162.187 174.211L159.72 170.151ZM114.213 180.75H9.56133V185.5H114.213V180.75ZM11.9363 183.125V145.733H7.18633V183.125H11.9363ZM97.1133 82.9C101.901 82.9 105.917 81.6581 108.654 78.7255L105.181 75.4845C103.662 77.1119 101.141 78.15 97.1133 78.15V82.9ZM108.65 78.7294C111.509 75.6797 112.712 71.2547 112.712 65.933H107.962C107.962 70.6433 106.886 73.6663 105.185 75.4806L108.65 78.7294ZM112.712 65.933V57.725H107.962V65.933H112.712ZM112.712 57.725C112.712 52.4199 111.516 48.0208 108.597 45.1016L105.238 48.4604C106.879 50.1012 107.962 52.9981 107.962 57.725H112.712ZM108.705 45.217C105.978 42.1012 101.945 40.758 97.1133 40.758V45.508C101.098 45.508 103.6 46.5967 105.13 48.3449L108.705 45.217ZM97.1133 40.758H84.8013V45.508H97.1133V40.758ZM82.4263 43.133V80.525H87.1763V43.133H82.4263ZM84.8013 82.9H97.1133V78.15H84.8013V82.9ZM98.7093 148.108C103.497 148.108 107.513 146.866 110.25 143.934L106.777 140.692C105.258 142.32 102.737 143.358 98.7093 143.358V148.108ZM110.246 143.937C113.105 140.888 114.308 136.463 114.308 131.141H109.558C109.558 135.851 108.482 138.874 106.781 140.689L110.246 143.937ZM114.308 131.141V121.109H109.558V131.141H114.308ZM114.308 121.109C114.308 115.804 113.112 111.405 110.193 108.486L106.834 111.844C108.475 113.485 109.558 116.382 109.558 121.109H114.308ZM110.301 108.601C107.574 105.485 103.541 104.142 98.7093 104.142V108.892C102.694 108.892 105.196 109.981 106.726 111.729L110.301 108.601ZM98.7093 104.142H84.8013V108.892H98.7093V104.142ZM82.4263 106.517V145.733H87.1763V106.517H82.4263ZM84.8013 148.108H98.7093V143.358H84.8013V148.108Z" fill="#0A0A0A"/>
</g>
<path d="M158.235 160.027C169.308 160.027 178.285 169.003 178.285 180.077V215.148C178.285 226.221 169.308 235.198 158.235 235.198H136.716L124.09 250.784C123.215 251.864 121.469 251.245 121.469 249.856V235.198H121.415C110.342 235.198 101.365 226.221 101.365 215.148V180.077C101.365 169.003 110.342 160.027 121.415 160.027H158.235Z" fill="black" fill-opacity="0.3"/>
<path d="M180.2 126.254C169.127 126.254 160.15 135.231 160.15 146.304V200.605C160.15 211.678 169.127 220.655 180.2 220.655H206.399L223.087 241.254C223.961 242.333 225.707 241.715 225.707 240.325V220.655H225.761C236.833 220.655 245.81 211.678 245.81 200.605V146.304C245.81 135.23 236.833 126.254 225.761 126.254H180.2Z" fill="black" fill-opacity="0.3"/>
<path fill-rule="evenodd" clip-rule="evenodd" d="M149.039 154.269C160.44 154.269 169.682 163.512 169.682 174.913V208.797C169.682 220.198 160.44 229.441 149.039 229.441H128.114L112.866 248.261V229.434C101.715 229.147 92.7631 220.018 92.7631 208.797V174.913C92.7631 163.512 102.005 154.269 113.406 154.269H149.039Z" fill="white"/>
<path fill-rule="evenodd" clip-rule="evenodd" d="M128.114 229.441H149.039C160.44 229.441 169.683 220.198 169.683 208.797V174.913C169.683 163.512 160.44 154.269 149.039 154.269H113.406C102.006 154.269 92.7631 163.512 92.7631 174.913V208.797C92.7631 220.018 101.715 229.147 112.867 229.434V248.261L128.114 229.441ZM109.917 232.133C98.5416 230.447 89.8141 220.642 89.8141 208.797V174.913C89.8141 161.883 100.377 151.32 113.406 151.32H149.039C162.069 151.32 172.632 161.883 172.632 174.913V208.797C172.632 221.827 162.069 232.39 149.039 232.39H129.52L115.158 250.117C114.372 251.089 113.059 251.459 111.882 251.04C110.704 250.624 109.917 249.51 109.917 248.261V232.133Z" fill="black"/>
<path fill-rule="evenodd" clip-rule="evenodd" d="M94.3725 175.458C94.3725 164.871 102.955 156.289 113.541 156.289H148.904C159.491 156.289 168.073 164.871 168.073 175.458V208.521C168.073 219.107 159.491 227.69 148.904 227.69H127.777C126.963 227.69 126.303 227.03 126.303 226.215C126.303 225.401 126.963 224.741 127.777 224.741H148.904C157.862 224.741 165.124 217.479 165.124 208.521V175.458C165.124 166.5 157.862 159.238 148.904 159.238H113.541C104.583 159.238 97.3214 166.5 97.3214 175.458V208.521C97.3214 217.479 104.583 224.741 113.541 224.741H114.984C115.799 224.741 116.459 225.401 116.459 226.215C116.459 227.03 115.799 227.69 114.984 227.69H113.541C102.955 227.69 94.3725 219.107 94.3725 208.521V175.458Z" fill="black"/>
<path fill-rule="evenodd" clip-rule="evenodd" d="M104.674 185.968C104.674 184.746 105.664 183.756 106.886 183.756H125.084C126.305 183.756 127.295 184.746 127.295 185.968C127.295 187.189 126.305 188.18 125.084 188.18H106.886C105.664 188.18 104.674 187.189 104.674 185.968Z" fill="black"/>
<path fill-rule="evenodd" clip-rule="evenodd" d="M104.674 171.982C104.674 170.761 105.664 169.771 106.886 169.771H149.767C150.988 169.771 151.979 170.761 151.979 171.982C151.979 173.204 150.988 174.194 149.767 174.194H106.886C105.664 174.194 104.674 173.204 104.674 171.982Z" fill="black"/>
<path fill-rule="evenodd" clip-rule="evenodd" d="M104.674 199.079C104.674 197.858 105.664 196.867 106.886 196.867H114.457C115.678 196.867 116.668 197.858 116.668 199.079C116.668 200.301 115.678 201.291 114.457 201.291H106.886C105.664 201.291 104.674 200.301 104.674 199.079Z" fill="black"/>
<path fill-rule="evenodd" clip-rule="evenodd" d="M169.346 119.074C157.945 119.074 148.703 128.316 148.703 139.717V192.832C148.703 204.233 157.945 213.475 169.346 213.475H194.953L214.26 237.308V213.468C225.412 213.182 234.364 204.052 234.364 192.832V139.717C234.364 128.316 225.121 119.074 213.72 119.074H169.346Z" fill="white"/>
<path fill-rule="evenodd" clip-rule="evenodd" d="M194.953 213.475H169.346C157.945 213.475 148.703 204.233 148.703 192.832V139.717C148.703 128.316 157.945 119.074 169.346 119.074H213.72C225.121 119.074 234.364 128.316 234.364 139.717V192.832C234.364 204.052 225.412 213.182 214.26 213.468V237.308L194.953 213.475ZM217.209 216.168C228.584 214.481 237.313 204.676 237.313 192.832V139.717C237.313 126.688 226.749 116.125 213.72 116.125H169.346C156.317 116.125 145.754 126.688 145.754 139.717V192.832C145.754 205.862 156.317 216.424 169.346 216.424H193.547L211.969 239.164C212.755 240.135 214.068 240.505 215.245 240.088C216.422 239.671 217.209 238.557 217.209 237.308V216.168Z" fill="black"/>
<path fill-rule="evenodd" clip-rule="evenodd" d="M150.564 140.681C150.564 130.094 159.147 121.512 169.733 121.512H213.116C223.703 121.512 232.284 130.094 232.284 140.681V191.434C232.284 202.021 223.703 210.603 213.116 210.603H212.596C211.782 210.603 211.122 209.943 211.122 209.129C211.122 208.314 211.782 207.654 212.596 207.654H213.116C222.074 207.654 229.335 200.392 229.335 191.434V140.681C229.335 131.723 222.074 124.461 213.116 124.461H169.733C160.775 124.461 153.514 131.723 153.514 140.681V191.434C153.514 200.392 160.775 207.654 169.733 207.654H196.144C196.959 207.654 197.619 208.314 197.619 209.129C197.619 209.943 196.959 210.603 196.144 210.603H169.733C159.147 210.603 150.564 202.021 150.564 191.434V140.681Z" fill="black"/>
<path fill-rule="evenodd" clip-rule="evenodd" d="M164.256 170.592C164.256 168.963 165.576 167.643 167.205 167.643H215.882C217.511 167.643 218.831 168.963 218.831 170.592C218.831 172.22 217.511 173.541 215.882 173.541H167.205C165.576 173.541 164.256 172.22 164.256 170.592Z" fill="black"/>
<path fill-rule="evenodd" clip-rule="evenodd" d="M164.256 155.268C164.256 153.639 165.576 152.319 167.205 152.319H215.882C217.511 152.319 218.831 153.639 218.831 155.268C218.831 156.897 217.511 158.217 215.882 158.217H167.205C165.576 158.217 164.256 156.897 164.256 155.268Z" fill="black"/>
<path fill-rule="evenodd" clip-rule="evenodd" d="M164.256 140.524C164.256 138.896 165.576 137.575 167.205 137.575H215.882C217.51 137.575 218.831 138.896 218.831 140.524C218.831 142.153 217.51 143.473 215.882 143.473H167.205C165.576 143.473 164.256 142.153 164.256 140.524Z" fill="black"/>
<path fill-rule="evenodd" clip-rule="evenodd" d="M164.256 184.956C164.256 183.327 165.576 182.007 167.205 182.007H193.63C195.258 182.007 196.579 183.327 196.579 184.956C196.579 186.585 195.258 187.905 193.63 187.905H167.205C165.576 187.905 164.256 186.585 164.256 184.956Z" fill="black"/>
<defs>
<filter id="filter0_d" x="0.853007" y="0.1993" width="186.821" height="194.801" filterUnits="userSpaceOnUse" color-interpolation-filters="sRGB">
<feFlood flood-opacity="0" result="BackgroundImageFix"/>
<feColorMatrix in="SourceAlpha" type="matrix" values="0 0 0 0 0 0 0 0 0 0 0 0 0 0 0 0 0 0 127 0"/>
<feOffset dy="3.16667"/>
<feGaussianBlur stdDeviation="3.16667"/>
<feColorMatrix type="matrix" values="0 0 0 0 0 0 0 0 0 0 0 0 0 0 0 0 0 0 0.25 0"/>
<feBlend mode="normal" in2="BackgroundImageFix" result="effect1_dropShadow"/>
<feBlend mode="normal" in="SourceGraphic" in2="effect1_dropShadow" result="shape"/>
</filter>
</defs>
</svg>
