<svg width="838" height="244" viewBox="0 0 838 244" fill="none" xmlns="http://www.w3.org/2000/svg">
<g filter="url(#filter0_d)">
<path d="M103.421 200.384H110.621V135.584H103.421V111.968H169.517C181.517 111.968 190.877 114.416 197.597 119.312C204.317 124.208 207.677 131.216 207.677 140.336C207.677 146 206.333 150.8 203.645 154.736C200.957 158.576 197.789 161.504 194.141 163.52C190.589 165.44 187.133 166.736 183.773 167.408V168.848C190.589 169.52 196.733 171.68 202.205 175.328C207.677 178.976 210.413 185.504 210.413 194.912C210.413 204.992 206.621 212.384 199.037 217.088C191.453 221.696 181.613 224 169.517 224H103.421V200.384ZM158.717 159.2C161.501 159.2 163.565 158.48 164.909 157.04C166.349 155.504 167.069 153.152 167.069 149.984V144.8C167.069 141.632 166.349 139.328 164.909 137.888C163.565 136.352 161.501 135.584 158.717 135.584H150.941V159.2H158.717ZM159.725 200.384C162.509 200.384 164.573 199.664 165.917 198.224C167.357 196.688 168.077 194.336 168.077 191.168V184.832C168.077 181.664 167.357 179.36 165.917 177.92C164.573 176.384 162.509 175.616 159.725 175.616H150.941V200.384H159.725ZM318.613 200.384H324.373V224H267.925V200.384H276.565L274.261 188.864H254.677L252.373 200.384H261.013V224H211.765V200.384H217.525L241.861 111.968H294.277L318.613 200.384ZM257.845 173.6H271.093L265.189 144.944H263.749L257.845 173.6ZM326.772 200.384H333.972V135.584H326.772V111.968H392.868C404.868 111.968 414.228 114.416 420.948 119.312C427.668 124.208 431.028 131.216 431.028 140.336C431.028 146 429.684 150.8 426.996 154.736C424.308 158.576 421.14 161.504 417.492 163.52C413.94 165.44 410.484 166.736 407.124 167.408V168.848C413.94 169.52 420.084 171.68 425.556 175.328C431.028 178.976 433.764 185.504 433.764 194.912C433.764 204.992 429.972 212.384 422.388 217.088C414.804 221.696 404.964 224 392.868 224H326.772V200.384ZM382.068 159.2C384.852 159.2 386.916 158.48 388.26 157.04C389.7 155.504 390.42 153.152 390.42 149.984V144.8C390.42 141.632 389.7 139.328 388.26 137.888C386.916 136.352 384.852 135.584 382.068 135.584H374.292V159.2H382.068ZM383.076 200.384C385.86 200.384 387.924 199.664 389.268 198.224C390.708 196.688 391.428 194.336 391.428 191.168V184.832C391.428 181.664 390.708 179.36 389.268 177.92C387.924 176.384 385.86 175.616 383.076 175.616H374.292V200.384H383.076ZM436.269 200.384H443.469V135.584H436.269V111.968H502.365C514.365 111.968 523.725 114.416 530.445 119.312C537.165 124.208 540.525 131.216 540.525 140.336C540.525 146 539.181 150.8 536.493 154.736C533.805 158.576 530.637 161.504 526.989 163.52C523.437 165.44 519.981 166.736 516.621 167.408V168.848C523.437 169.52 529.581 171.68 535.053 175.328C540.525 178.976 543.261 185.504 543.261 194.912C543.261 204.992 539.469 212.384 531.885 217.088C524.301 221.696 514.461 224 502.365 224H436.269V200.384ZM491.565 159.2C494.349 159.2 496.413 158.48 497.757 157.04C499.197 155.504 499.917 153.152 499.917 149.984V144.8C499.917 141.632 499.197 139.328 497.757 137.888C496.413 136.352 494.349 135.584 491.565 135.584H483.789V159.2H491.565ZM492.573 200.384C495.357 200.384 497.421 199.664 498.765 198.224C500.205 196.688 500.925 194.336 500.925 191.168V184.832C500.925 181.664 500.205 179.36 498.765 177.92C497.421 176.384 495.357 175.616 492.573 175.616H483.789V200.384H492.573ZM545.765 224V200.384H552.965V135.584H545.765V111.968H606.533V135.584H593.285V200.384H606.245V187.136H634.901V224H545.765ZM637.683 224V200.384H644.883V135.584H637.683V111.968H734.883V155.456H702.627V135.584H685.203V158.336H697.875V174.752H685.203V200.384H702.627V177.632H734.883V224H637.683Z" fill="white"/>
<path d="M103.421 200.384V198.384H101.421V200.384H103.421ZM110.621 200.384V202.384H112.621V200.384H110.621ZM110.621 135.584H112.621V133.584H110.621V135.584ZM103.421 135.584H101.421V137.584H103.421V135.584ZM103.421 111.968V109.968H101.421V111.968H103.421ZM203.645 154.736L205.283 155.883L205.29 155.873L205.296 155.864L203.645 154.736ZM194.141 163.52L195.092 165.279L195.1 165.275L195.108 165.27L194.141 163.52ZM183.773 167.408L183.38 165.447L181.773 165.768V167.408H183.773ZM183.773 168.848H181.773V170.661L183.576 170.838L183.773 168.848ZM202.205 175.328L203.314 173.664L202.205 175.328ZM199.037 217.088L200.075 218.797L200.083 218.792L200.091 218.788L199.037 217.088ZM103.421 224H101.421V226H103.421V224ZM164.909 157.04L163.45 155.672L163.447 155.675L164.909 157.04ZM164.909 137.888L163.403 139.205L163.447 139.255L163.494 139.302L164.909 137.888ZM150.941 135.584V133.584H148.941V135.584H150.941ZM150.941 159.2H148.941V161.2H150.941V159.2ZM165.917 198.224L164.458 196.856L164.455 196.859L165.917 198.224ZM165.917 177.92L164.411 179.237L164.455 179.287L164.502 179.334L165.917 177.92ZM150.941 175.616V173.616H148.941V175.616H150.941ZM150.941 200.384H148.941V202.384H150.941V200.384ZM103.421 202.384H110.621V198.384H103.421V202.384ZM112.621 200.384V135.584H108.621V200.384H112.621ZM110.621 133.584H103.421V137.584H110.621V133.584ZM105.421 135.584V111.968H101.421V135.584H105.421ZM103.421 113.968H169.517V109.968H103.421V113.968ZM169.517 113.968C181.274 113.968 190.163 116.37 196.419 120.928L198.774 117.696C191.591 112.462 181.759 109.968 169.517 109.968V113.968ZM196.419 120.928C202.567 125.408 205.677 131.783 205.677 140.336H209.677C209.677 130.649 206.067 123.008 198.774 117.696L196.419 120.928ZM205.677 140.336C205.677 145.675 204.414 150.063 201.993 153.608L205.296 155.864C208.251 151.537 209.677 146.325 209.677 140.336H205.677ZM202.006 153.589C199.471 157.211 196.523 159.918 193.173 161.77L195.108 165.27C199.054 163.09 202.442 159.941 205.283 155.883L202.006 153.589ZM193.19 161.761C189.782 163.602 186.514 164.82 183.38 165.447L184.165 169.369C187.751 168.652 191.395 167.278 195.092 165.279L193.19 161.761ZM181.773 167.408V168.848H185.773V167.408H181.773ZM183.576 170.838C190.08 171.48 195.908 173.534 201.095 176.992L203.314 173.664C197.558 169.826 191.097 167.56 183.969 166.858L183.576 170.838ZM201.095 176.992C205.794 180.125 208.413 185.862 208.413 194.912H212.413C212.413 185.146 209.559 177.827 203.314 173.664L201.095 176.992ZM208.413 194.912C208.413 204.406 204.893 211.102 197.982 215.388L200.091 218.788C208.348 213.666 212.413 205.578 212.413 194.912H208.413ZM197.998 215.379C190.821 219.74 181.375 222 169.517 222V226C181.851 226 192.084 223.652 200.075 218.797L197.998 215.379ZM169.517 222H103.421V226H169.517V222ZM105.421 224V200.384H101.421V224H105.421ZM158.717 161.2C161.821 161.2 164.514 160.394 166.371 158.405L163.447 155.675C162.615 156.566 161.181 157.2 158.717 157.2V161.2ZM166.368 158.408C168.295 156.352 169.069 153.409 169.069 149.984H165.069C165.069 152.895 164.402 154.656 163.45 155.672L166.368 158.408ZM169.069 149.984V144.8H165.069V149.984H169.069ZM169.069 144.8C169.069 141.389 168.301 138.452 166.323 136.474L163.494 139.302C164.396 140.204 165.069 141.875 165.069 144.8H169.069ZM166.414 136.571C164.566 134.459 161.858 133.584 158.717 133.584V137.584C161.144 137.584 162.563 138.245 163.403 139.205L166.414 136.571ZM158.717 133.584H150.941V137.584H158.717V133.584ZM148.941 135.584V159.2H152.941V135.584H148.941ZM150.941 161.2H158.717V157.2H150.941V161.2ZM159.725 202.384C162.829 202.384 165.522 201.578 167.379 199.589L164.455 196.859C163.623 197.75 162.189 198.384 159.725 198.384V202.384ZM167.376 199.592C169.303 197.536 170.077 194.593 170.077 191.168H166.077C166.077 194.079 165.41 195.84 164.458 196.856L167.376 199.592ZM170.077 191.168V184.832H166.077V191.168H170.077ZM170.077 184.832C170.077 181.421 169.309 178.484 167.331 176.506L164.502 179.334C165.404 180.236 166.077 181.907 166.077 184.832H170.077ZM167.422 176.603C165.574 174.491 162.866 173.616 159.725 173.616V177.616C162.152 177.616 163.571 178.277 164.411 179.237L167.422 176.603ZM159.725 173.616H150.941V177.616H159.725V173.616ZM148.941 175.616V200.384H152.941V175.616H148.941ZM150.941 202.384H159.725V198.384H150.941V202.384ZM318.613 200.384L316.685 200.915L317.089 202.384H318.613V200.384ZM324.373 200.384H326.373V198.384H324.373V200.384ZM324.373 224V226H326.373V224H324.373ZM267.925 224H265.925V226H267.925V224ZM267.925 200.384V198.384H265.925V200.384H267.925ZM276.565 200.384V202.384H279.004L278.526 199.992L276.565 200.384ZM274.261 188.864L276.222 188.472L275.9 186.864H274.261V188.864ZM254.677 188.864V186.864H253.037L252.716 188.472L254.677 188.864ZM252.373 200.384L250.412 199.992L249.933 202.384H252.373V200.384ZM261.013 200.384H263.013V198.384H261.013V200.384ZM261.013 224V226H263.013V224H261.013ZM211.765 224H209.765V226H211.765V224ZM211.765 200.384V198.384H209.765V200.384H211.765ZM217.525 200.384V202.384H219.049L219.453 200.915L217.525 200.384ZM241.861 111.968V109.968H240.337L239.933 111.437L241.861 111.968ZM294.277 111.968L296.205 111.437L295.801 109.968H294.277V111.968ZM257.845 173.6L255.886 173.196L255.391 175.6H257.845V173.6ZM271.093 173.6V175.6H273.547L273.052 173.196L271.093 173.6ZM265.189 144.944L267.148 144.54L266.819 142.944H265.189V144.944ZM263.749 144.944V142.944H262.119L261.79 144.54L263.749 144.944ZM318.613 202.384H324.373V198.384H318.613V202.384ZM322.373 200.384V224H326.373V200.384H322.373ZM324.373 222H267.925V226H324.373V222ZM269.925 224V200.384H265.925V224H269.925ZM267.925 202.384H276.565V198.384H267.925V202.384ZM278.526 199.992L276.222 188.472L272.3 189.256L274.604 200.776L278.526 199.992ZM274.261 186.864H254.677V190.864H274.261V186.864ZM252.716 188.472L250.412 199.992L254.334 200.776L256.638 189.256L252.716 188.472ZM252.373 202.384H261.013V198.384H252.373V202.384ZM259.013 200.384V224H263.013V200.384H259.013ZM261.013 222H211.765V226H261.013V222ZM213.765 224V200.384H209.765V224H213.765ZM211.765 202.384H217.525V198.384H211.765V202.384ZM219.453 200.915L243.789 112.499L239.933 111.437L215.597 199.853L219.453 200.915ZM241.861 113.968H294.277V109.968H241.861V113.968ZM292.349 112.499L316.685 200.915L320.541 199.853L296.205 111.437L292.349 112.499ZM257.845 175.6H271.093V171.6H257.845V175.6ZM273.052 173.196L267.148 144.54L263.23 145.348L269.134 174.004L273.052 173.196ZM265.189 142.944H263.749V146.944H265.189V142.944ZM261.79 144.54L255.886 173.196L259.804 174.004L265.708 145.348L261.79 144.54ZM326.772 200.384V198.384H324.772V200.384H326.772ZM333.972 200.384V202.384H335.972V200.384H333.972ZM333.972 135.584H335.972V133.584H333.972V135.584ZM326.772 135.584H324.772V137.584H326.772V135.584ZM326.772 111.968V109.968H324.772V111.968H326.772ZM426.996 154.736L428.635 155.883L428.642 155.873L428.648 155.864L426.996 154.736ZM417.492 163.52L418.444 165.279L418.452 165.275L418.46 165.27L417.492 163.52ZM407.124 167.408L406.732 165.447L405.124 165.768V167.408H407.124ZM407.124 168.848H405.124V170.661L406.928 170.838L407.124 168.848ZM425.556 175.328L426.666 173.664L425.556 175.328ZM422.388 217.088L423.427 218.797L423.435 218.792L423.443 218.788L422.388 217.088ZM326.772 224H324.772V226H326.772V224ZM388.26 157.04L386.801 155.672L386.798 155.675L388.26 157.04ZM388.26 137.888L386.755 139.205L386.799 139.255L386.846 139.302L388.26 137.888ZM374.292 135.584V133.584H372.292V135.584H374.292ZM374.292 159.2H372.292V161.2H374.292V159.2ZM389.268 198.224L387.809 196.856L387.806 196.859L389.268 198.224ZM389.268 177.92L387.763 179.237L387.807 179.287L387.854 179.334L389.268 177.92ZM374.292 175.616V173.616H372.292V175.616H374.292ZM374.292 200.384H372.292V202.384H374.292V200.384ZM326.772 202.384H333.972V198.384H326.772V202.384ZM335.972 200.384V135.584H331.972V200.384H335.972ZM333.972 133.584H326.772V137.584H333.972V133.584ZM328.772 135.584V111.968H324.772V135.584H328.772ZM326.772 113.968H392.868V109.968H326.772V113.968ZM392.868 113.968C404.626 113.968 413.514 116.37 419.771 120.928L422.126 117.696C414.943 112.462 405.111 109.968 392.868 109.968V113.968ZM419.771 120.928C425.919 125.408 429.029 131.783 429.029 140.336H433.029C433.029 130.649 429.418 123.008 422.126 117.696L419.771 120.928ZM429.029 140.336C429.029 145.675 427.766 150.063 425.345 153.608L428.648 155.864C431.603 151.537 433.029 146.325 433.029 140.336H429.029ZM425.358 153.589C422.823 157.211 419.875 159.918 416.525 161.77L418.46 165.27C422.406 163.09 425.794 159.941 428.635 155.883L425.358 153.589ZM416.541 161.761C413.134 163.602 409.866 164.82 406.732 165.447L407.517 169.369C411.103 168.652 414.747 167.278 418.444 165.279L416.541 161.761ZM405.124 167.408V168.848H409.124V167.408H405.124ZM406.928 170.838C413.432 171.48 419.26 173.534 424.447 176.992L426.666 173.664C420.909 169.826 414.449 167.56 407.321 166.858L406.928 170.838ZM424.447 176.992C429.146 180.125 431.764 185.862 431.764 194.912H435.764C435.764 185.146 432.911 177.827 426.666 173.664L424.447 176.992ZM431.764 194.912C431.764 204.406 428.245 211.102 421.334 215.388L423.443 218.788C431.7 213.666 435.764 205.578 435.764 194.912H431.764ZM421.35 215.379C414.173 219.74 404.726 222 392.868 222V226C405.203 226 415.436 223.652 423.427 218.797L421.35 215.379ZM392.868 222H326.772V226H392.868V222ZM328.772 224V200.384H324.772V224H328.772ZM382.068 161.2C385.173 161.2 387.866 160.394 389.723 158.405L386.798 155.675C385.967 156.566 384.532 157.2 382.068 157.2V161.2ZM389.72 158.408C391.647 156.352 392.421 153.409 392.421 149.984H388.421C388.421 152.895 387.754 154.656 386.801 155.672L389.72 158.408ZM392.421 149.984V144.8H388.421V149.984H392.421ZM392.421 144.8C392.421 141.389 391.653 138.452 389.675 136.474L386.846 139.302C387.748 140.204 388.421 141.875 388.421 144.8H392.421ZM389.766 136.571C387.918 134.459 385.209 133.584 382.068 133.584V137.584C384.496 137.584 385.915 138.245 386.755 139.205L389.766 136.571ZM382.068 133.584H374.292V137.584H382.068V133.584ZM372.292 135.584V159.2H376.292V135.584H372.292ZM374.292 161.2H382.068V157.2H374.292V161.2ZM383.076 202.384C386.181 202.384 388.874 201.578 390.731 199.589L387.806 196.859C386.975 197.75 385.54 198.384 383.076 198.384V202.384ZM390.728 199.592C392.655 197.536 393.428 194.593 393.428 191.168H389.428C389.428 194.079 388.762 195.84 387.809 196.856L390.728 199.592ZM393.428 191.168V184.832H389.428V191.168H393.428ZM393.428 184.832C393.428 181.421 392.661 178.484 390.683 176.506L387.854 179.334C388.756 180.236 389.428 181.907 389.428 184.832H393.428ZM390.774 176.603C388.926 174.491 386.217 173.616 383.076 173.616V177.616C385.504 177.616 386.923 178.277 387.763 179.237L390.774 176.603ZM383.076 173.616H374.292V177.616H383.076V173.616ZM372.292 175.616V200.384H376.292V175.616H372.292ZM374.292 202.384H383.076V198.384H374.292V202.384ZM436.269 200.384V198.384H434.269V200.384H436.269ZM443.469 200.384V202.384H445.469V200.384H443.469ZM443.469 135.584H445.469V133.584H443.469V135.584ZM436.269 135.584H434.269V137.584H436.269V135.584ZM436.269 111.968V109.968H434.269V111.968H436.269ZM536.493 154.736L538.131 155.883L538.138 155.873L538.144 155.864L536.493 154.736ZM526.989 163.52L527.94 165.279L527.948 165.275L527.956 165.27L526.989 163.52ZM516.621 167.408L516.229 165.447L514.621 165.768V167.408H516.621ZM516.621 168.848H514.621V170.661L516.424 170.838L516.621 168.848ZM535.053 175.328L536.162 173.664L535.053 175.328ZM531.885 217.088L532.923 218.797L532.931 218.792L532.939 218.788L531.885 217.088ZM436.269 224H434.269V226H436.269V224ZM497.757 157.04L496.298 155.672L496.295 155.675L497.757 157.04ZM497.757 137.888L496.252 139.205L496.295 139.255L496.343 139.302L497.757 137.888ZM483.789 135.584V133.584H481.789V135.584H483.789ZM483.789 159.2H481.789V161.2H483.789V159.2ZM498.765 198.224L497.306 196.856L497.303 196.859L498.765 198.224ZM498.765 177.92L497.26 179.237L497.303 179.287L497.351 179.334L498.765 177.92ZM483.789 175.616V173.616H481.789V175.616H483.789ZM483.789 200.384H481.789V202.384H483.789V200.384ZM436.269 202.384H443.469V198.384H436.269V202.384ZM445.469 200.384V135.584H441.469V200.384H445.469ZM443.469 133.584H436.269V137.584H443.469V133.584ZM438.269 135.584V111.968H434.269V135.584H438.269ZM436.269 113.968H502.365V109.968H436.269V113.968ZM502.365 113.968C514.122 113.968 523.011 116.37 529.267 120.928L531.622 117.696C524.439 112.462 514.608 109.968 502.365 109.968V113.968ZM529.267 120.928C535.415 125.408 538.525 131.783 538.525 140.336H542.525C542.525 130.649 538.915 123.008 531.622 117.696L529.267 120.928ZM538.525 140.336C538.525 145.675 537.262 150.063 534.841 153.608L538.144 155.864C541.099 151.537 542.525 146.325 542.525 140.336H538.525ZM534.854 153.589C532.319 157.211 529.371 159.918 526.021 161.77L527.956 165.27C531.902 163.09 535.29 159.941 538.131 155.883L534.854 153.589ZM526.038 161.761C522.631 163.602 519.362 164.82 516.229 165.447L517.013 169.369C520.599 168.652 524.243 167.278 527.94 165.279L526.038 161.761ZM514.621 167.408V168.848H518.621V167.408H514.621ZM516.424 170.838C522.928 171.48 528.756 173.534 533.943 176.992L536.162 173.664C530.406 169.826 523.945 167.56 516.817 166.858L516.424 170.838ZM533.943 176.992C538.642 180.125 541.261 185.862 541.261 194.912H545.261C545.261 185.146 542.407 177.827 536.162 173.664L533.943 176.992ZM541.261 194.912C541.261 204.406 537.741 211.102 530.831 215.388L532.939 218.788C541.196 213.666 545.261 205.578 545.261 194.912H541.261ZM530.846 215.379C523.669 219.74 514.223 222 502.365 222V226C514.699 226 524.932 223.652 532.923 218.797L530.846 215.379ZM502.365 222H436.269V226H502.365V222ZM438.269 224V200.384H434.269V224H438.269ZM491.565 161.2C494.669 161.2 497.362 160.394 499.219 158.405L496.295 155.675C495.464 156.566 494.029 157.2 491.565 157.2V161.2ZM499.216 158.408C501.143 156.352 501.917 153.409 501.917 149.984H497.917C497.917 152.895 497.25 154.656 496.298 155.672L499.216 158.408ZM501.917 149.984V144.8H497.917V149.984H501.917ZM501.917 144.8C501.917 141.389 501.149 138.452 499.171 136.474L496.343 139.302C497.244 140.204 497.917 141.875 497.917 144.8H501.917ZM499.262 136.571C497.414 134.459 494.706 133.584 491.565 133.584V137.584C493.992 137.584 495.411 138.245 496.252 139.205L499.262 136.571ZM491.565 133.584H483.789V137.584H491.565V133.584ZM481.789 135.584V159.2H485.789V135.584H481.789ZM483.789 161.2H491.565V157.2H483.789V161.2ZM492.573 202.384C495.677 202.384 498.37 201.578 500.227 199.589L497.303 196.859C496.472 197.75 495.037 198.384 492.573 198.384V202.384ZM500.224 199.592C502.151 197.536 502.925 194.593 502.925 191.168H498.925C498.925 194.079 498.258 195.84 497.306 196.856L500.224 199.592ZM502.925 191.168V184.832H498.925V191.168H502.925ZM502.925 184.832C502.925 181.421 502.157 178.484 500.179 176.506L497.351 179.334C498.252 180.236 498.925 181.907 498.925 184.832H502.925ZM500.27 176.603C498.422 174.491 495.714 173.616 492.573 173.616V177.616C495 177.616 496.419 178.277 497.26 179.237L500.27 176.603ZM492.573 173.616H483.789V177.616H492.573V173.616ZM481.789 175.616V200.384H485.789V175.616H481.789ZM483.789 202.384H492.573V198.384H483.789V202.384ZM545.765 224H543.765V226H545.765V224ZM545.765 200.384V198.384H543.765V200.384H545.765ZM552.965 200.384V202.384H554.965V200.384H552.965ZM552.965 135.584H554.965V133.584H552.965V135.584ZM545.765 135.584H543.765V137.584H545.765V135.584ZM545.765 111.968V109.968H543.765V111.968H545.765ZM606.533 111.968H608.533V109.968H606.533V111.968ZM606.533 135.584V137.584H608.533V135.584H606.533ZM593.285 135.584V133.584H591.285V135.584H593.285ZM593.285 200.384H591.285V202.384H593.285V200.384ZM606.245 200.384V202.384H608.245V200.384H606.245ZM606.245 187.136V185.136H604.245V187.136H606.245ZM634.901 187.136H636.901V185.136H634.901V187.136ZM634.901 224V226H636.901V224H634.901ZM547.765 224V200.384H543.765V224H547.765ZM545.765 202.384H552.965V198.384H545.765V202.384ZM554.965 200.384V135.584H550.965V200.384H554.965ZM552.965 133.584H545.765V137.584H552.965V133.584ZM547.765 135.584V111.968H543.765V135.584H547.765ZM545.765 113.968H606.533V109.968H545.765V113.968ZM604.533 111.968V135.584H608.533V111.968H604.533ZM606.533 133.584H593.285V137.584H606.533V133.584ZM591.285 135.584V200.384H595.285V135.584H591.285ZM593.285 202.384H606.245V198.384H593.285V202.384ZM608.245 200.384V187.136H604.245V200.384H608.245ZM606.245 189.136H634.901V185.136H606.245V189.136ZM632.901 187.136V224H636.901V187.136H632.901ZM634.901 222H545.765V226H634.901V222ZM637.683 224H635.683V226H637.683V224ZM637.683 200.384V198.384H635.683V200.384H637.683ZM644.883 200.384V202.384H646.883V200.384H644.883ZM644.883 135.584H646.883V133.584H644.883V135.584ZM637.683 135.584H635.683V137.584H637.683V135.584ZM637.683 111.968V109.968H635.683V111.968H637.683ZM734.883 111.968H736.883V109.968H734.883V111.968ZM734.883 155.456V157.456H736.883V155.456H734.883ZM702.627 155.456H700.627V157.456H702.627V155.456ZM702.627 135.584H704.627V133.584H702.627V135.584ZM685.203 135.584V133.584H683.203V135.584H685.203ZM685.203 158.336H683.203V160.336H685.203V158.336ZM697.875 158.336H699.875V156.336H697.875V158.336ZM697.875 174.752V176.752H699.875V174.752H697.875ZM685.203 174.752V172.752H683.203V174.752H685.203ZM685.203 200.384H683.203V202.384H685.203V200.384ZM702.627 200.384V202.384H704.627V200.384H702.627ZM702.627 177.632V175.632H700.627V177.632H702.627ZM734.883 177.632H736.883V175.632H734.883V177.632ZM734.883 224V226H736.883V224H734.883ZM639.683 224V200.384H635.683V224H639.683ZM637.683 202.384H644.883V198.384H637.683V202.384ZM646.883 200.384V135.584H642.883V200.384H646.883ZM644.883 133.584H637.683V137.584H644.883V133.584ZM639.683 135.584V111.968H635.683V135.584H639.683ZM637.683 113.968H734.883V109.968H637.683V113.968ZM732.883 111.968V155.456H736.883V111.968H732.883ZM734.883 153.456H702.627V157.456H734.883V153.456ZM704.627 155.456V135.584H700.627V155.456H704.627ZM702.627 133.584H685.203V137.584H702.627V133.584ZM683.203 135.584V158.336H687.203V135.584H683.203ZM685.203 160.336H697.875V156.336H685.203V160.336ZM695.875 158.336V174.752H699.875V158.336H695.875ZM697.875 172.752H685.203V176.752H697.875V172.752ZM683.203 174.752V200.384H687.203V174.752H683.203ZM685.203 202.384H702.627V198.384H685.203V202.384ZM704.627 200.384V177.632H700.627V200.384H704.627ZM702.627 179.632H734.883V175.632H702.627V179.632ZM732.883 177.632V224H736.883V177.632H732.883ZM734.883 222H637.683V226H734.883V222Z" fill="#0A0A0A"/>
</g>
<path d="M212.955 58.5637C221.1 58.5637 227.704 65.1671 227.704 73.313V99.1129C227.704 107.259 221.1 113.862 212.955 113.862H197.125L187.836 125.328C187.193 126.122 185.909 125.667 185.909 124.645V113.862H185.869C177.723 113.862 171.119 107.259 171.119 99.1129V73.313C171.119 65.1671 177.723 58.5637 185.869 58.5637H212.955Z" fill="black" fill-opacity="0.3"/>
<path d="M229.113 33.7193C220.967 33.7193 214.363 40.3229 214.363 48.4686V88.4146C214.363 96.5604 220.967 103.164 229.113 103.164H248.386L260.662 118.317C261.305 119.111 262.589 118.656 262.589 117.634V103.164H262.629C270.774 103.164 277.378 96.5604 277.378 88.4146V48.4686C277.378 40.3227 270.774 33.7193 262.629 33.7193H229.113Z" fill="black" fill-opacity="0.3"/>
<path fill-rule="evenodd" clip-rule="evenodd" d="M206.19 54.3285C214.577 54.3285 221.376 61.1274 221.376 69.5144V94.441C221.376 102.828 214.577 109.627 206.19 109.627H190.796L179.58 123.471V109.622C171.377 109.411 164.791 102.695 164.791 94.441V69.5144C164.791 61.1274 171.59 54.3285 179.977 54.3285H206.19Z" fill="white"/>
<path fill-rule="evenodd" clip-rule="evenodd" d="M190.796 109.627H206.19C214.577 109.627 221.376 102.828 221.376 94.441V69.5143C221.376 61.1274 214.577 54.3285 206.19 54.3285H179.977C171.59 54.3285 164.791 61.1274 164.791 69.5143V94.441C164.791 102.695 171.377 109.411 179.58 109.622V123.471L190.796 109.627ZM177.411 111.608C169.042 110.367 162.622 103.154 162.622 94.441V69.5143C162.622 59.9292 170.392 52.159 179.977 52.159H206.19C215.775 52.159 223.545 59.9292 223.545 69.5143V94.441C223.545 104.026 215.775 111.796 206.19 111.796H191.831L181.266 124.837C180.687 125.552 179.722 125.824 178.856 125.516C177.989 125.21 177.411 124.391 177.411 123.471V111.608Z" fill="black"/>
<path fill-rule="evenodd" clip-rule="evenodd" d="M165.975 69.9155C165.975 62.1276 172.288 55.8144 180.076 55.8144H206.09C213.878 55.8144 220.192 62.1276 220.192 69.9155V94.2375C220.192 102.025 213.878 108.339 206.09 108.339H190.549C189.95 108.339 189.464 107.853 189.464 107.254C189.464 106.655 189.95 106.169 190.549 106.169H206.09C212.68 106.169 218.022 100.827 218.022 94.2375V69.9155C218.022 63.3258 212.68 57.9837 206.09 57.9837H180.076C173.487 57.9837 168.144 63.3258 168.144 69.9155V94.2376C168.144 100.827 173.487 106.169 180.076 106.169H181.138C181.737 106.169 182.223 106.655 182.223 107.254C182.223 107.853 181.737 108.339 181.138 108.339H180.076C172.288 108.339 165.975 102.025 165.975 94.2376V69.9155Z" fill="black"/>
<path fill-rule="evenodd" clip-rule="evenodd" d="M173.553 77.6469C173.553 76.7483 174.282 76.0199 175.18 76.0199H188.567C189.466 76.0199 190.194 76.7483 190.194 77.6469C190.194 78.5455 189.466 79.274 188.567 79.274H175.18C174.282 79.274 173.553 78.5455 173.553 77.6469Z" fill="black"/>
<path fill-rule="evenodd" clip-rule="evenodd" d="M173.553 67.3587C173.553 66.4601 174.282 65.7316 175.18 65.7316H206.725C207.624 65.7316 208.352 66.4601 208.352 67.3587C208.352 68.2573 207.624 68.9857 206.725 68.9857H175.18C174.282 68.9857 173.553 68.2573 173.553 67.3587Z" fill="black"/>
<path fill-rule="evenodd" clip-rule="evenodd" d="M173.553 87.2921C173.553 86.3934 174.282 85.6649 175.18 85.6649H180.75C181.648 85.6649 182.377 86.3934 182.377 87.2921C182.377 88.1907 181.648 88.9191 180.75 88.9191H175.18C174.282 88.9191 173.553 88.1907 173.553 87.2921Z" fill="black"/>
<path fill-rule="evenodd" clip-rule="evenodd" d="M221.128 28.4377C212.741 28.4377 205.943 35.2366 205.943 43.6235V82.6963C205.943 91.0833 212.741 97.8822 221.128 97.8822H239.965L254.169 115.414V97.8771C262.372 97.6663 268.957 90.9503 268.957 82.6963V43.6235C268.957 35.2366 262.158 28.4377 253.771 28.4377H221.128Z" fill="white"/>
<path fill-rule="evenodd" clip-rule="evenodd" d="M239.965 97.8822H221.128C212.741 97.8822 205.943 91.0833 205.943 82.6963V43.6235C205.943 35.2366 212.741 28.4377 221.128 28.4377H253.771C262.158 28.4377 268.957 35.2366 268.957 43.6235V82.6963C268.957 90.9503 262.372 97.6663 254.169 97.8771V115.414L239.965 97.8822ZM256.338 99.8629C264.706 98.6221 271.127 91.4092 271.127 82.6963V43.6235C271.127 34.0384 263.356 26.2682 253.771 26.2682H221.128C211.543 26.2682 203.773 34.0385 203.773 43.6235V82.6963C203.773 92.2813 211.543 100.052 221.128 100.052H238.931L252.483 116.78C253.061 117.494 254.027 117.766 254.893 117.459C255.759 117.152 256.338 116.333 256.338 115.414V99.8629Z" fill="black"/>
<path fill-rule="evenodd" clip-rule="evenodd" d="M207.312 44.3323C207.312 36.5445 213.625 30.2312 221.413 30.2312H253.327C261.115 30.2312 267.428 36.5446 267.428 44.3323V81.6682C267.428 89.456 261.115 95.7694 253.327 95.7694H252.944C252.345 95.7694 251.86 95.2837 251.86 94.6846C251.86 94.0855 252.345 93.5999 252.944 93.5999H253.327C259.916 93.5999 265.258 88.2578 265.258 81.6682V44.3323C265.258 37.7427 259.916 32.4007 253.327 32.4007H221.413C214.823 32.4007 209.481 37.7427 209.481 44.3323V81.6682C209.481 88.2578 214.823 93.5999 221.413 93.5999H240.842C241.441 93.5999 241.926 94.0855 241.926 94.6846C241.926 95.2837 241.441 95.7694 240.842 95.7694H221.413C213.625 95.7694 207.312 89.456 207.312 81.6682V44.3323Z" fill="black"/>
<path fill-rule="evenodd" clip-rule="evenodd" d="M217.384 66.3356C217.384 65.1376 218.355 64.1663 219.553 64.1663H255.361C256.559 64.1663 257.531 65.1376 257.531 66.3356C257.531 67.5338 256.559 68.5051 255.361 68.5051H219.553C218.355 68.5051 217.384 67.5338 217.384 66.3356Z" fill="black"/>
<path fill-rule="evenodd" clip-rule="evenodd" d="M217.384 55.0629C217.384 53.8649 218.355 52.8936 219.553 52.8936H255.361C256.559 52.8936 257.531 53.8649 257.531 55.0629C257.531 56.2611 256.559 57.2324 255.361 57.2324H219.553C218.355 57.2324 217.384 56.2611 217.384 55.0629Z" fill="black"/>
<path fill-rule="evenodd" clip-rule="evenodd" d="M217.383 44.2172C217.383 43.0191 218.355 42.0478 219.553 42.0478H255.361C256.559 42.0478 257.531 43.0191 257.531 44.2172C257.531 45.4153 256.559 46.3866 255.361 46.3866H219.553C218.355 46.3866 217.383 45.4153 217.383 44.2172Z" fill="black"/>
<path fill-rule="evenodd" clip-rule="evenodd" d="M217.384 76.9025C217.384 75.7043 218.355 74.7331 219.553 74.7331H238.992C240.19 74.7331 241.161 75.7043 241.161 76.9025C241.161 78.1006 240.19 79.0718 238.992 79.0718H219.553C218.355 79.0718 217.384 78.1006 217.384 76.9025Z" fill="black"/>
<defs>
<filter id="filter0_d" x="93.4206" y="105.968" width="651.463" height="132.032" filterUnits="userSpaceOnUse" color-interpolation-filters="sRGB">
<feFlood flood-opacity="0" result="BackgroundImageFix"/>
<feColorMatrix in="SourceAlpha" type="matrix" values="0 0 0 0 0 0 0 0 0 0 0 0 0 0 0 0 0 0 127 0"/>
<feOffset dy="4"/>
<feGaussianBlur stdDeviation="4"/>
<feColorMatrix type="matrix" values="0 0 0 0 0 0 0 0 0 0 0 0 0 0 0 0 0 0 0.25 0"/>
<feBlend mode="normal" in2="BackgroundImageFix" result="effect1_dropShadow"/>
<feBlend mode="normal" in="SourceGraphic" in2="effect1_dropShadow" result="shape"/>
</filter>
</defs>
</svg>
